# xmcd
#
# Track frame offsets: 
#        150
#        15270
#        30242
#        46012
#        61561
#        77041
#        91963
#        105507
#        123210
#        137301
#        151005
#        166534
#        181524
#        197837
#
# Disc length: 2840 seconds
#
# Revision: 0
# Processed by: cddbd v1.5.2PL0 Copyright (c) Steve Scherf et al.
# Submitted via: ExactAudioCopy v1.3
#
DISCID=810b160e
DTITLE=Tērvete - Draudzene nakts
DYEAR=2010
DGENRE=Latvian
TTITLE0=Krustimi
TTITLE1=Kad iemīlēju Tevi
TTITLE2=Piezvani
TTITLE3=Neaizej
TTITLE4=Nospēlē mani
TTITLE5=Meitene no lauku balles
TTITLE6=Debesis iekrīt jūrā
TTITLE7=Tērvetnieks
TTITLE8=Mūsu pēdējais tango
TTITLE9=Optimists
TTITLE10=Zem svešām debesīm
TTITLE11=Tavi greizie rati
TTITLE12=Draudzene nakts
TTITLE13=Piedošana
EXTD=
EXTT0=
EXTT1=
EXTT2=
EXTT3=
EXTT4=
EXTT5=
EXTT6=
EXTT7=
EXTT8=
EXTT9=
EXTT10=
EXTT11=
EXTT12=
EXTT13=
PLAYORDER=
